<svg id="visual" xmlns="http://www.w3.org/2000/svg" xmlns:xlink="http://www.w3.org/1999/xlink" version="1.1">
            <path
               d="M0 251L66.7 239.2C133.3 227.3 266.7 203.7 400 182.8C533.3 162 666.7 144 800 167C933.3 190 1066.7 254 1200 242C1333.3 230 1466.7 142 1600 150.8C1733.3 159.7 1866.7 265.3 1933.3 318.2L2000 371L2000 0L1933.3 0C1866.7 0 1733.3 0 1600 0C1466.7 0 1333.3 0 1200 0C1066.7 0 933.3 0 800 0C666.7 0 533.3 0 400 0C266.7 0 133.3 0 66.7 0L0 0Z"
               fill="#ffd413"></path>
            <path
               d="M0 189L66.7 173C133.3 157 266.7 125 400 125.3C533.3 125.7 666.7 158.3 800 175.2C933.3 192 1066.7 193 1200 170.3C1333.3 147.7 1466.7 101.3 1600 75.3C1733.3 49.3 1866.7 43.7 1933.3 40.8L2000 38L2000 0L1933.3 0C1866.7 0 1733.3 0 1600 0C1466.7 0 1333.3 0 1200 0C1066.7 0 933.3 0 800 0C666.7 0 533.3 0 400 0C266.7 0 133.3 0 66.7 0L0 0Z"
               fill="#ec2020"></path>
         </svg>